<svg xmlns="http://www.w3.org/2000/svg" width="900" height="1100" viewBox="0 0 900 1100">
  <rect width="100%" height="100%" fill="#f7f4ea"/>
  <text x="450.0" y="32" text-anchor="middle" font-size="26" font-family="Arial, sans-serif" fill="#222">Mejor solucion GA</text>
  <text x="450.0" y="56" text-anchor="middle" font-size="13" font-family="Arial, sans-serif" fill="#555">Longitud vs latitud de las 96 capitales departamentales</text>
  <polyline points="596.8,557.8 615.8,504.9 642.8,441.6 650.3,398.2 691.1,396.4 719.6,346.9 742.2,291.3 651.5,229.9 652.0,278.0 667.3,336.2 591.9,343.3 586.2,432.1 501.8,378.5 530.6,322.4 593.1,268.9 547.2,248.2 568.1,157.6 504.7,179.9 472.0,60.0 455.9,98.1 428.2,142.7 415.8,194.9 415.6,239.2 423.6,255.4 436.5,253.6 437.4,266.9 431.5,259.4 418.1,265.3 435.9,285.6 449.2,295.2 406.0,366.7 373.0,402.4 335.5,424.0 315.7,515.6 269.4,544.4 229.9,562.8 214.0,505.4 206.7,443.8 137.2,394.3 60.0,356.3 136.9,298.0 199.5,342.6 251.6,347.9 263.7,414.5 307.6,355.1 301.4,307.1 274.8,222.7 233.3,230.3 359.4,193.5 362.4,240.3 381.8,305.9 434.2,459.2 393.2,489.6 403.8,561.8 368.7,599.6 398.0,663.2 436.5,701.7 444.3,766.5 419.7,813.8 373.9,803.4 379.0,755.5 331.8,782.8 337.6,672.7 305.1,620.4 262.8,711.6 267.3,818.1 274.8,885.2 300.6,892.2 329.8,845.6 379.2,850.4 388.6,922.3 431.3,894.4 462.7,953.4 519.2,849.5 547.0,824.3 572.7,811.6 605.1,885.0 637.3,904.4 840.0,952.5 799.0,1040.0 714.0,838.5 655.0,795.5 645.9,742.9 625.5,672.2 577.7,700.9 560.8,723.1 497.6,747.6 519.7,688.4 548.6,643.9 473.8,605.9 487.9,517.1 477.9,469.5 574.2,546.3 574.4,607.4 636.7,629.8 648.8,592.2 596.8,557.8" fill="none" stroke="#d1495b" stroke-width="3.5" stroke-opacity="0.85"/>
  <circle cx="596.8" cy="557.8" r="3.2" fill="#1f3c88" fill-opacity="0.65" /><circle cx="504.7" cy="179.9" r="3.2" fill="#1f3c88" fill-opacity="0.65" /><circle cx="487.9" cy="517.1" r="3.2" fill="#1f3c88" fill-opacity="0.65" /><circle cx="655.0" cy="795.5" r="3.2" fill="#1f3c88" fill-opacity="0.65" /><circle cx="645.9" cy="742.9" r="3.2" fill="#1f3c88" fill-opacity="0.65" /><circle cx="714.0" cy="838.5" r="3.2" fill="#1f3c88" fill-opacity="0.65" /><circle cx="560.8" cy="723.1" r="3.2" fill="#1f3c88" fill-opacity="0.65" /><circle cx="568.1" cy="157.6" r="3.2" fill="#1f3c88" fill-opacity="0.65" /><circle cx="388.6" cy="922.3" r="3.2" fill="#1f3c88" fill-opacity="0.65" /><circle cx="530.6" cy="322.4" r="3.2" fill="#1f3c88" fill-opacity="0.65" /><circle cx="431.3" cy="894.4" r="3.2" fill="#1f3c88" fill-opacity="0.65" /><circle cx="444.3" cy="766.5" r="3.2" fill="#1f3c88" fill-opacity="0.65" /><circle cx="605.1" cy="885.0" r="3.2" fill="#1f3c88" fill-opacity="0.65" /><circle cx="274.8" cy="222.7" r="3.2" fill="#1f3c88" fill-opacity="0.65" /><circle cx="436.5" cy="701.7" r="3.2" fill="#1f3c88" fill-opacity="0.65" /><circle cx="305.1" cy="620.4" r="3.2" fill="#1f3c88" fill-opacity="0.65" /><circle cx="229.9" cy="562.8" r="3.2" fill="#1f3c88" fill-opacity="0.65" /><circle cx="434.2" cy="459.2" r="3.2" fill="#1f3c88" fill-opacity="0.65" /><circle cx="398.0" cy="663.2" r="3.2" fill="#1f3c88" fill-opacity="0.65" /><circle cx="799.0" cy="1040.0" r="3.2" fill="#1f3c88" fill-opacity="0.65" /><circle cx="840.0" cy="952.5" r="3.2" fill="#1f3c88" fill-opacity="0.65" /><circle cx="586.2" cy="432.1" r="3.2" fill="#1f3c88" fill-opacity="0.65" /><circle cx="136.9" cy="298.0" r="3.2" fill="#1f3c88" fill-opacity="0.65" /><circle cx="403.8" cy="561.8" r="3.2" fill="#1f3c88" fill-opacity="0.65" /><circle cx="337.6" cy="672.7" r="3.2" fill="#1f3c88" fill-opacity="0.65" /><circle cx="642.8" cy="441.6" r="3.2" fill="#1f3c88" fill-opacity="0.65" /><circle cx="577.7" cy="700.9" r="3.2" fill="#1f3c88" fill-opacity="0.65" /><circle cx="362.4" cy="240.3" r="3.2" fill="#1f3c88" fill-opacity="0.65" /><circle cx="381.8" cy="305.9" r="3.2" fill="#1f3c88" fill-opacity="0.65" /><circle cx="60.0" cy="356.3" r="3.2" fill="#1f3c88" fill-opacity="0.65" /><circle cx="547.0" cy="824.3" r="3.2" fill="#1f3c88" fill-opacity="0.65" /><circle cx="379.2" cy="850.4" r="3.2" fill="#1f3c88" fill-opacity="0.65" /><circle cx="329.8" cy="845.6" r="3.2" fill="#1f3c88" fill-opacity="0.65" /><circle cx="262.8" cy="711.6" r="3.2" fill="#1f3c88" fill-opacity="0.65" /><circle cx="519.2" cy="849.5" r="3.2" fill="#1f3c88" fill-opacity="0.65" /><circle cx="199.5" cy="342.6" r="3.2" fill="#1f3c88" fill-opacity="0.65" /><circle cx="393.2" cy="489.6" r="3.2" fill="#1f3c88" fill-opacity="0.65" /><circle cx="335.5" cy="424.0" r="3.2" fill="#1f3c88" fill-opacity="0.65" /><circle cx="625.5" cy="672.2" r="3.2" fill="#1f3c88" fill-opacity="0.65" /><circle cx="615.8" cy="504.9" r="3.2" fill="#1f3c88" fill-opacity="0.65" /><circle cx="267.3" cy="818.1" r="3.2" fill="#1f3c88" fill-opacity="0.65" /><circle cx="373.0" cy="402.4" r="3.2" fill="#1f3c88" fill-opacity="0.65" /><circle cx="548.6" cy="643.9" r="3.2" fill="#1f3c88" fill-opacity="0.65" /><circle cx="519.7" cy="688.4" r="3.2" fill="#1f3c88" fill-opacity="0.65" /><circle cx="206.7" cy="443.8" r="3.2" fill="#1f3c88" fill-opacity="0.65" /><circle cx="406.0" cy="366.7" r="3.2" fill="#1f3c88" fill-opacity="0.65" /><circle cx="379.0" cy="755.5" r="3.2" fill="#1f3c88" fill-opacity="0.65" /><circle cx="331.8" cy="782.8" r="3.2" fill="#1f3c88" fill-opacity="0.65" /><circle cx="497.6" cy="747.6" r="3.2" fill="#1f3c88" fill-opacity="0.65" /><circle cx="263.7" cy="414.5" r="3.2" fill="#1f3c88" fill-opacity="0.65" /><circle cx="233.3" cy="230.3" r="3.2" fill="#1f3c88" fill-opacity="0.65" /><circle cx="547.2" cy="248.2" r="3.2" fill="#1f3c88" fill-opacity="0.65" /><circle cx="591.9" cy="343.3" r="3.2" fill="#1f3c88" fill-opacity="0.65" /><circle cx="251.6" cy="347.9" r="3.2" fill="#1f3c88" fill-opacity="0.65" /><circle cx="652.0" cy="278.0" r="3.2" fill="#1f3c88" fill-opacity="0.65" /><circle cx="593.1" cy="268.9" r="3.2" fill="#1f3c88" fill-opacity="0.65" /><circle cx="137.2" cy="394.3" r="3.2" fill="#1f3c88" fill-opacity="0.65" /><circle cx="651.5" cy="229.9" r="3.2" fill="#1f3c88" fill-opacity="0.65" /><circle cx="477.9" cy="469.5" r="3.2" fill="#1f3c88" fill-opacity="0.65" /><circle cx="472.0" cy="60.0" r="3.2" fill="#1f3c88" fill-opacity="0.65" /><circle cx="415.8" cy="194.9" r="3.2" fill="#1f3c88" fill-opacity="0.65" /><circle cx="301.4" cy="307.1" r="3.2" fill="#1f3c88" fill-opacity="0.65" /><circle cx="455.9" cy="98.1" r="3.2" fill="#1f3c88" fill-opacity="0.65" /><circle cx="473.8" cy="605.9" r="3.2" fill="#1f3c88" fill-opacity="0.65" /><circle cx="274.8" cy="885.2" r="3.2" fill="#1f3c88" fill-opacity="0.65" /><circle cx="300.6" cy="892.2" r="3.2" fill="#1f3c88" fill-opacity="0.65" /><circle cx="462.7" cy="953.4" r="3.2" fill="#1f3c88" fill-opacity="0.65" /><circle cx="742.2" cy="291.3" r="3.2" fill="#1f3c88" fill-opacity="0.65" /><circle cx="719.6" cy="346.9" r="3.2" fill="#1f3c88" fill-opacity="0.65" /><circle cx="574.4" cy="607.4" r="3.2" fill="#1f3c88" fill-opacity="0.65" /><circle cx="650.3" cy="398.2" r="3.2" fill="#1f3c88" fill-opacity="0.65" /><circle cx="574.2" cy="546.3" r="3.2" fill="#1f3c88" fill-opacity="0.65" /><circle cx="307.6" cy="355.1" r="3.2" fill="#1f3c88" fill-opacity="0.65" /><circle cx="636.7" cy="629.8" r="3.2" fill="#1f3c88" fill-opacity="0.65" /><circle cx="648.8" cy="592.2" r="3.2" fill="#1f3c88" fill-opacity="0.65" /><circle cx="431.5" cy="259.4" r="3.2" fill="#1f3c88" fill-opacity="0.65" /><circle cx="359.4" cy="193.5" r="3.2" fill="#1f3c88" fill-opacity="0.65" /><circle cx="449.2" cy="295.2" r="3.2" fill="#1f3c88" fill-opacity="0.65" /><circle cx="418.1" cy="265.3" r="3.2" fill="#1f3c88" fill-opacity="0.65" /><circle cx="269.4" cy="544.4" r="3.2" fill="#1f3c88" fill-opacity="0.65" /><circle cx="428.2" cy="142.7" r="3.2" fill="#1f3c88" fill-opacity="0.65" /><circle cx="419.7" cy="813.8" r="3.2" fill="#1f3c88" fill-opacity="0.65" /><circle cx="373.9" cy="803.4" r="3.2" fill="#1f3c88" fill-opacity="0.65" /><circle cx="637.3" cy="904.4" r="3.2" fill="#1f3c88" fill-opacity="0.65" /><circle cx="572.7" cy="811.6" r="3.2" fill="#1f3c88" fill-opacity="0.65" /><circle cx="214.0" cy="505.4" r="3.2" fill="#1f3c88" fill-opacity="0.65" /><circle cx="315.7" cy="515.6" r="3.2" fill="#1f3c88" fill-opacity="0.65" /><circle cx="368.7" cy="599.6" r="3.2" fill="#1f3c88" fill-opacity="0.65" /><circle cx="667.3" cy="336.2" r="3.2" fill="#1f3c88" fill-opacity="0.65" /><circle cx="501.8" cy="378.5" r="3.2" fill="#1f3c88" fill-opacity="0.65" /><circle cx="691.1" cy="396.4" r="3.2" fill="#1f3c88" fill-opacity="0.65" /><circle cx="435.9" cy="285.6" r="3.2" fill="#1f3c88" fill-opacity="0.65" /><circle cx="423.6" cy="255.4" r="3.2" fill="#1f3c88" fill-opacity="0.65" /><circle cx="436.5" cy="253.6" r="3.2" fill="#1f3c88" fill-opacity="0.65" /><circle cx="437.4" cy="266.9" r="3.2" fill="#1f3c88" fill-opacity="0.65" /><circle cx="415.6" cy="239.2" r="3.2" fill="#1f3c88" fill-opacity="0.65" />
  <text x="603.8" y="550.8" font-size="12" fill="#333">1</text><circle cx="596.8" cy="557.8" r="5.5" fill="#d1495b" /><text x="659.0" y="271.0" font-size="12" fill="#333">9</text><circle cx="652.0" cy="278.0" r="5.5" fill="#d1495b" /><text x="511.7" y="172.9" font-size="12" fill="#333">18</text><circle cx="504.7" cy="179.9" r="5.5" fill="#d1495b" /><text x="444.4" y="259.9" font-size="12" fill="#333">26</text><circle cx="437.4" cy="266.9" r="5.5" fill="#d1495b" /><text x="276.4" y="537.4" font-size="12" fill="#333">35</text><circle cx="269.4" cy="544.4" r="5.5" fill="#d1495b" /><text x="270.7" y="407.5" font-size="12" fill="#333">44</text><circle cx="263.7" cy="414.5" r="5.5" fill="#d1495b" /><text x="441.2" y="452.2" font-size="12" fill="#333">52</text><circle cx="434.2" cy="459.2" r="5.5" fill="#d1495b" /><text x="386.0" y="748.5" font-size="12" fill="#333">61</text><circle cx="379.0" cy="755.5" r="5.5" fill="#d1495b" /><text x="386.2" y="843.4" font-size="12" fill="#333">70</text><circle cx="379.2" cy="850.4" r="5.5" fill="#d1495b" /><text x="644.3" y="897.4" font-size="12" fill="#333">78</text><circle cx="637.3" cy="904.4" r="5.5" fill="#d1495b" /><text x="504.6" y="740.6" font-size="12" fill="#333">87</text><circle cx="497.6" cy="747.6" r="5.5" fill="#d1495b" /><text x="655.8" y="585.2" font-size="12" fill="#333">96</text><circle cx="648.8" cy="592.2" r="5.5" fill="#d1495b" />
  <circle cx="596.8" cy="557.8" r="8" fill="#2a9d8f"/>
  <circle cx="648.8" cy="592.2" r="8" fill="#e76f51"/>
  <text x="608.8" y="561.8" font-size="13" fill="#222">Inicio: Bourg-en-Bresse</text>
  <text x="660.8" y="596.2" font-size="13" fill="#222">Ultima ciudad: Nîmes</text>
</svg>