<svg xmlns="http://www.w3.org/2000/svg" width="980" height="1180" viewBox="0 0 980 1180">
  <rect width="100%" height="100%" fill="#f6f8fb"/>
  <rect x="24" y="92" width="932" height="994" rx="24" fill="#edf4fb"/>
  <polygon points="70.0,384.4 152.8,322.5 513.7,70.0 804.7,315.5 774.3,896.1 691.7,966.1 503.7,1018.1 301.3,945.7" fill="#e7f0d8" stroke="#9eb68a" stroke-width="2.4"/>
  <polygon points="849.9,1001.1 926.0,1009.1 922.8,1126.0 854.7,1120.7" fill="#e7f0d8" stroke="#9eb68a" stroke-width="2.0"/>
  <line x1="70.0" y1="1100.4" x2="910.0" y2="1100.4" stroke="#d8dee9" stroke-width="1" stroke-dasharray="4 6"/><text x="58.0" y="1104.4" text-anchor="end" font-size="11" fill="#758196">42N</text><line x1="70.0" y1="980.9" x2="910.0" y2="980.9" stroke="#d8dee9" stroke-width="1" stroke-dasharray="4 6"/><text x="58.0" y="984.9" text-anchor="end" font-size="11" fill="#758196">43N</text><line x1="70.0" y1="861.5" x2="910.0" y2="861.5" stroke="#d8dee9" stroke-width="1" stroke-dasharray="4 6"/><text x="58.0" y="865.5" text-anchor="end" font-size="11" fill="#758196">44N</text><line x1="70.0" y1="742.1" x2="910.0" y2="742.1" stroke="#d8dee9" stroke-width="1" stroke-dasharray="4 6"/><text x="58.0" y="746.1" text-anchor="end" font-size="11" fill="#758196">45N</text><line x1="70.0" y1="622.7" x2="910.0" y2="622.7" stroke="#d8dee9" stroke-width="1" stroke-dasharray="4 6"/><text x="58.0" y="626.7" text-anchor="end" font-size="11" fill="#758196">46N</text><line x1="70.0" y1="503.3" x2="910.0" y2="503.3" stroke="#d8dee9" stroke-width="1" stroke-dasharray="4 6"/><text x="58.0" y="507.3" text-anchor="end" font-size="11" fill="#758196">47N</text><line x1="70.0" y1="383.9" x2="910.0" y2="383.9" stroke="#d8dee9" stroke-width="1" stroke-dasharray="4 6"/><text x="58.0" y="387.9" text-anchor="end" font-size="11" fill="#758196">48N</text><line x1="70.0" y1="264.5" x2="910.0" y2="264.5" stroke="#d8dee9" stroke-width="1" stroke-dasharray="4 6"/><text x="58.0" y="268.5" text-anchor="end" font-size="11" fill="#758196">49N</text><line x1="70.0" y1="145.1" x2="910.0" y2="145.1" stroke="#d8dee9" stroke-width="1" stroke-dasharray="4 6"/><text x="58.0" y="149.1" text-anchor="end" font-size="11" fill="#758196">50N</text><line x1="76.4" y1="1110.0" x2="76.4" y2="70.0" stroke="#d8dee9" stroke-width="1" stroke-dasharray="4 6"/><text x="76.4" y="1130.0" text-anchor="middle" font-size="11" fill="#758196">-4</text><line x1="200.3" y1="1110.0" x2="200.3" y2="70.0" stroke="#d8dee9" stroke-width="1" stroke-dasharray="4 6"/><text x="200.3" y="1130.0" text-anchor="middle" font-size="11" fill="#758196">-2</text><line x1="324.3" y1="1110.0" x2="324.3" y2="70.0" stroke="#d8dee9" stroke-width="1" stroke-dasharray="4 6"/><text x="324.3" y="1130.0" text-anchor="middle" font-size="11" fill="#758196">0</text><line x1="448.2" y1="1110.0" x2="448.2" y2="70.0" stroke="#d8dee9" stroke-width="1" stroke-dasharray="4 6"/><text x="448.2" y="1130.0" text-anchor="middle" font-size="11" fill="#758196">2</text><line x1="572.2" y1="1110.0" x2="572.2" y2="70.0" stroke="#d8dee9" stroke-width="1" stroke-dasharray="4 6"/><text x="572.2" y="1130.0" text-anchor="middle" font-size="11" fill="#758196">4</text><line x1="696.1" y1="1110.0" x2="696.1" y2="70.0" stroke="#d8dee9" stroke-width="1" stroke-dasharray="4 6"/><text x="696.1" y="1130.0" text-anchor="middle" font-size="11" fill="#758196">6</text><line x1="820.1" y1="1110.0" x2="820.1" y2="70.0" stroke="#d8dee9" stroke-width="1" stroke-dasharray="4 6"/><text x="820.1" y="1130.0" text-anchor="middle" font-size="11" fill="#758196">8</text>
  <text x="490.0" y="38" text-anchor="middle" font-size="28" font-family="Arial, sans-serif" fill="#1f2933">Mejor ruta final GA sobre Francia</text>
  <text x="490.0" y="64" text-anchor="middle" font-size="13" font-family="Arial, sans-serif" fill="#52606d">Ruta expandida sobre un mapa estilizado de Francia a partir de coordenadas geograficas reales</text>
  <circle cx="648.1" cy="598.2" r="3.1" fill="#315a8a" fill-opacity="0.75" /><circle cx="548.9" cy="197.2" r="3.1" fill="#315a8a" fill-opacity="0.75" /><circle cx="530.8" cy="555.1" r="3.1" fill="#315a8a" fill-opacity="0.75" /><circle cx="710.7" cy="850.6" r="3.1" fill="#315a8a" fill-opacity="0.75" /><circle cx="701.0" cy="794.7" r="3.1" fill="#315a8a" fill-opacity="0.75" /><circle cx="774.3" cy="896.1" r="3.1" fill="#315a8a" fill-opacity="0.75" /><circle cx="609.3" cy="773.7" r="3.1" fill="#315a8a" fill-opacity="0.75" /><circle cx="617.2" cy="173.5" r="3.1" fill="#315a8a" fill-opacity="0.75" /><circle cx="423.9" cy="985.1" r="3.1" fill="#315a8a" fill-opacity="0.75" /><circle cx="576.8" cy="348.4" r="3.1" fill="#315a8a" fill-opacity="0.75" /><circle cx="469.9" cy="955.5" r="3.1" fill="#315a8a" fill-opacity="0.75" /><circle cx="483.9" cy="819.8" r="3.1" fill="#315a8a" fill-opacity="0.75" /><circle cx="657.1" cy="945.5" r="3.1" fill="#315a8a" fill-opacity="0.75" /><circle cx="301.3" cy="242.7" r="3.1" fill="#315a8a" fill-opacity="0.75" /><circle cx="475.5" cy="751.0" r="3.1" fill="#315a8a" fill-opacity="0.75" /><circle cx="333.9" cy="664.7" r="3.1" fill="#315a8a" fill-opacity="0.75" /><circle cx="252.9" cy="603.6" r="3.1" fill="#315a8a" fill-opacity="0.75" /><circle cx="472.9" cy="493.7" r="3.1" fill="#315a8a" fill-opacity="0.75" /><circle cx="434.0" cy="710.2" r="3.1" fill="#315a8a" fill-opacity="0.75" /><circle cx="865.9" cy="1110.0" r="3.1" fill="#315a8a" fill-opacity="0.75" /><circle cx="910.0" cy="1017.1" r="3.1" fill="#315a8a" fill-opacity="0.75" /><circle cx="636.7" cy="464.9" r="3.1" fill="#315a8a" fill-opacity="0.75" /><circle cx="152.8" cy="322.5" r="3.1" fill="#315a8a" fill-opacity="0.75" /><circle cx="440.2" cy="602.5" r="3.1" fill="#315a8a" fill-opacity="0.75" /><circle cx="369.0" cy="720.2" r="3.1" fill="#315a8a" fill-opacity="0.75" /><circle cx="697.6" cy="474.9" r="3.1" fill="#315a8a" fill-opacity="0.75" /><circle cx="627.5" cy="750.1" r="3.1" fill="#315a8a" fill-opacity="0.75" /><circle cx="395.6" cy="261.3" r="3.1" fill="#315a8a" fill-opacity="0.75" /><circle cx="416.5" cy="330.9" r="3.1" fill="#315a8a" fill-opacity="0.75" /><circle cx="70.0" cy="384.4" r="3.1" fill="#315a8a" fill-opacity="0.75" /><circle cx="594.5" cy="881.0" r="3.1" fill="#315a8a" fill-opacity="0.75" /><circle cx="413.8" cy="908.7" r="3.1" fill="#315a8a" fill-opacity="0.75" /><circle cx="360.5" cy="903.7" r="3.1" fill="#315a8a" fill-opacity="0.75" /><circle cx="288.4" cy="761.5" r="3.1" fill="#315a8a" fill-opacity="0.75" /><circle cx="564.6" cy="907.9" r="3.1" fill="#315a8a" fill-opacity="0.75" /><circle cx="220.3" cy="369.9" r="3.1" fill="#315a8a" fill-opacity="0.75" /><circle cx="428.8" cy="525.9" r="3.1" fill="#315a8a" fill-opacity="0.75" /><circle cx="366.7" cy="456.3" r="3.1" fill="#315a8a" fill-opacity="0.75" /><circle cx="679.0" cy="719.6" r="3.1" fill="#315a8a" fill-opacity="0.75" /><circle cx="668.6" cy="542.1" r="3.1" fill="#315a8a" fill-opacity="0.75" /><circle cx="293.2" cy="874.5" r="3.1" fill="#315a8a" fill-opacity="0.75" /><circle cx="407.1" cy="433.4" r="3.1" fill="#315a8a" fill-opacity="0.75" /><circle cx="596.2" cy="689.6" r="3.1" fill="#315a8a" fill-opacity="0.75" /><circle cx="565.1" cy="736.9" r="3.1" fill="#315a8a" fill-opacity="0.75" /><circle cx="228.0" cy="477.3" r="3.1" fill="#315a8a" fill-opacity="0.75" /><circle cx="442.6" cy="395.5" r="3.1" fill="#315a8a" fill-opacity="0.75" /><circle cx="413.6" cy="808.1" r="3.1" fill="#315a8a" fill-opacity="0.75" /><circle cx="362.8" cy="837.1" r="3.1" fill="#315a8a" fill-opacity="0.75" /><circle cx="541.2" cy="799.7" r="3.1" fill="#315a8a" fill-opacity="0.75" /><circle cx="289.4" cy="446.2" r="3.1" fill="#315a8a" fill-opacity="0.75" /><circle cx="256.7" cy="250.7" r="3.1" fill="#315a8a" fill-opacity="0.75" /><circle cx="594.7" cy="269.7" r="3.1" fill="#315a8a" fill-opacity="0.75" /><circle cx="642.8" cy="370.6" r="3.1" fill="#315a8a" fill-opacity="0.75" /><circle cx="276.3" cy="375.5" r="3.1" fill="#315a8a" fill-opacity="0.75" /><circle cx="707.6" cy="301.3" r="3.1" fill="#315a8a" fill-opacity="0.75" /><circle cx="644.1" cy="291.7" r="3.1" fill="#315a8a" fill-opacity="0.75" /><circle cx="153.2" cy="424.7" r="3.1" fill="#315a8a" fill-opacity="0.75" /><circle cx="707.0" cy="250.3" r="3.1" fill="#315a8a" fill-opacity="0.75" /><circle cx="520.0" cy="504.6" r="3.1" fill="#315a8a" fill-opacity="0.75" /><circle cx="513.7" cy="70.0" r="3.1" fill="#315a8a" fill-opacity="0.75" /><circle cx="453.2" cy="213.2" r="3.1" fill="#315a8a" fill-opacity="0.75" /><circle cx="329.9" cy="332.2" r="3.1" fill="#315a8a" fill-opacity="0.75" /><circle cx="496.4" cy="110.4" r="3.1" fill="#315a8a" fill-opacity="0.75" /><circle cx="515.6" cy="649.3" r="3.1" fill="#315a8a" fill-opacity="0.75" /><circle cx="301.3" cy="945.7" r="3.1" fill="#315a8a" fill-opacity="0.75" /><circle cx="329.1" cy="953.1" r="3.1" fill="#315a8a" fill-opacity="0.75" /><circle cx="503.7" cy="1018.1" r="3.1" fill="#315a8a" fill-opacity="0.75" /><circle cx="804.7" cy="315.5" r="3.1" fill="#315a8a" fill-opacity="0.75" /><circle cx="780.3" cy="374.5" r="3.1" fill="#315a8a" fill-opacity="0.75" /><circle cx="624.0" cy="650.9" r="3.1" fill="#315a8a" fill-opacity="0.75" /><circle cx="705.7" cy="428.9" r="3.1" fill="#315a8a" fill-opacity="0.75" /><circle cx="623.7" cy="586.1" r="3.1" fill="#315a8a" fill-opacity="0.75" /><circle cx="336.6" cy="383.2" r="3.1" fill="#315a8a" fill-opacity="0.75" /><circle cx="691.0" cy="674.7" r="3.1" fill="#315a8a" fill-opacity="0.75" /><circle cx="704.1" cy="634.8" r="3.1" fill="#315a8a" fill-opacity="0.75" /><circle cx="470.0" cy="281.7" r="3.1" fill="#315a8a" fill-opacity="0.75" /><circle cx="392.4" cy="211.6" r="3.1" fill="#315a8a" fill-opacity="0.75" /><circle cx="489.2" cy="319.6" r="3.1" fill="#315a8a" fill-opacity="0.75" /><circle cx="455.7" cy="287.8" r="3.1" fill="#315a8a" fill-opacity="0.75" /><circle cx="295.5" cy="584.1" r="3.1" fill="#315a8a" fill-opacity="0.75" /><circle cx="466.5" cy="157.8" r="3.1" fill="#315a8a" fill-opacity="0.75" /><circle cx="457.4" cy="869.9" r="3.1" fill="#315a8a" fill-opacity="0.75" /><circle cx="408.1" cy="858.9" r="3.1" fill="#315a8a" fill-opacity="0.75" /><circle cx="691.7" cy="966.1" r="3.1" fill="#315a8a" fill-opacity="0.75" /><circle cx="622.1" cy="867.6" r="3.1" fill="#315a8a" fill-opacity="0.75" /><circle cx="235.9" cy="542.7" r="3.1" fill="#315a8a" fill-opacity="0.75" /><circle cx="345.4" cy="553.5" r="3.1" fill="#315a8a" fill-opacity="0.75" /><circle cx="402.4" cy="642.6" r="3.1" fill="#315a8a" fill-opacity="0.75" /><circle cx="724.0" cy="363.1" r="3.1" fill="#315a8a" fill-opacity="0.75" /><circle cx="545.8" cy="408.0" r="3.1" fill="#315a8a" fill-opacity="0.75" /><circle cx="749.7" cy="427.0" r="3.1" fill="#315a8a" fill-opacity="0.75" /><circle cx="474.8" cy="309.5" r="3.1" fill="#315a8a" fill-opacity="0.75" /><circle cx="461.6" cy="277.4" r="3.1" fill="#315a8a" fill-opacity="0.75" /><circle cx="475.5" cy="275.4" r="3.1" fill="#315a8a" fill-opacity="0.75" /><circle cx="476.5" cy="289.6" r="3.1" fill="#315a8a" fill-opacity="0.75" /><circle cx="452.9" cy="260.2" r="3.1" fill="#315a8a" fill-opacity="0.75" />
  <polyline points="648.1,598.2 668.6,542.1 697.6,474.9 705.7,428.9 749.7,427.0 780.3,374.5 804.7,315.5 707.0,250.3 707.6,301.3 724.0,363.1 642.8,370.6 636.7,464.9 545.8,408.0 576.8,348.4 644.1,291.7 594.7,269.7 617.2,173.5 548.9,197.2 513.7,70.0 496.4,110.4 466.5,157.8 453.2,213.2 452.9,260.2 461.6,277.4 475.5,275.4 476.5,289.6 470.0,281.7 455.7,287.8 474.8,309.5 489.2,319.6 474.8,309.5 442.6,395.5 407.1,433.4 366.7,456.3 345.4,553.5 295.5,584.1 252.9,603.6 235.9,542.7 228.0,477.3 153.2,424.7 70.0,384.4 152.8,322.5 220.3,369.9 276.3,375.5 289.4,446.2 336.6,383.2 329.9,332.2 301.3,242.7 256.7,250.7 301.3,242.7 392.4,211.6 395.6,261.3 416.5,330.9 442.6,395.5 472.9,493.7 428.8,525.9 440.2,602.5 402.4,642.6 434.0,710.2 475.5,751.0 483.9,819.8 457.4,869.9 408.1,858.9 413.6,808.1 362.8,837.1 369.0,720.2 333.9,664.7 288.4,761.5 293.2,874.5 301.3,945.7 329.1,953.1 360.5,903.7 413.8,908.7 423.9,985.1 469.9,955.5 503.7,1018.1 564.6,907.9 594.5,881.0 622.1,867.6 657.1,945.5 691.7,966.1 910.0,1017.1 865.9,1110.0 774.3,896.1 710.7,850.6 701.0,794.7 679.0,719.6 627.5,750.1 609.3,773.7 541.2,799.7 565.1,736.9 596.2,689.6 515.6,649.3 530.8,555.1 520.0,504.6 530.8,555.1 623.7,586.1 624.0,650.9 691.0,674.7 704.1,634.8 648.1,598.2" fill="none" stroke="#d1495b" stroke-width="4.2" stroke-linecap="round" stroke-linejoin="round" stroke-opacity="0.92"/>
  <circle cx="648.1" cy="598.2" r="5.3" fill="#d1495b" fill-opacity="0.95" /><text x="656.1" y="590.2" font-size="11.5" fill="#3b3b3b">1</text><circle cx="724.0" cy="363.1" r="5.3" fill="#d1495b" fill-opacity="0.95" /><text x="732.0" y="355.1" font-size="11.5" fill="#3b3b3b">2</text><circle cx="513.7" cy="70.0" r="5.3" fill="#d1495b" fill-opacity="0.95" /><text x="521.7" y="62.0" font-size="11.5" fill="#3b3b3b">3</text><circle cx="455.7" cy="287.8" r="5.3" fill="#d1495b" fill-opacity="0.95" /><text x="463.7" y="279.8" font-size="11.5" fill="#3b3b3b">4</text><circle cx="252.9" cy="603.6" r="5.3" fill="#d1495b" fill-opacity="0.95" /><text x="260.9" y="595.6" font-size="11.5" fill="#3b3b3b">5</text><circle cx="336.6" cy="383.2" r="5.3" fill="#d1495b" fill-opacity="0.95" /><text x="344.6" y="375.2" font-size="11.5" fill="#3b3b3b">6</text><circle cx="472.9" cy="493.7" r="5.3" fill="#d1495b" fill-opacity="0.95" /><text x="480.9" y="485.7" font-size="11.5" fill="#3b3b3b">7</text><circle cx="413.6" cy="808.1" r="5.3" fill="#d1495b" fill-opacity="0.95" /><text x="421.6" y="800.1" font-size="11.5" fill="#3b3b3b">8</text><circle cx="413.8" cy="908.7" r="5.3" fill="#d1495b" fill-opacity="0.95" /><text x="421.8" y="900.7" font-size="11.5" fill="#3b3b3b">9</text><circle cx="910.0" cy="1017.1" r="5.3" fill="#d1495b" fill-opacity="0.95" /><text x="918.0" y="1009.1" font-size="11.5" fill="#3b3b3b">10</text><circle cx="565.1" cy="736.9" r="5.3" fill="#d1495b" fill-opacity="0.95" /><text x="573.1" y="728.9" font-size="11.5" fill="#3b3b3b">11</text><circle cx="704.1" cy="634.8" r="5.3" fill="#d1495b" fill-opacity="0.95" /><text x="712.1" y="626.8" font-size="11.5" fill="#3b3b3b">12</text>
  <circle cx="648.1" cy="598.2" r="9" fill="#2a9d8f" stroke="#ffffff" stroke-width="2.5"/>
  <circle cx="704.1" cy="634.8" r="9" fill="#f4a261" stroke="#ffffff" stroke-width="2.5"/>
  <rect x="34" y="1016" width="912" height="122" rx="18" fill="#fffdf9" stroke="#d7dde5"/>
  <line x1="58" y1="1054" x2="128" y2="1054" stroke="#d1495b" stroke-width="4"/>
  <circle cx="74" cy="1084" r="7" fill="#2a9d8f"/>
  <circle cx="74" cy="1112" r="7" fill="#f4a261"/>
  <text x="142" y="1059" font-size="13" fill="#243b53">Recorrido expandido reconstruido sobre el grafo real</text>
  <text x="88" y="1088" font-size="13" fill="#243b53">Inicio y cierre: Bourg-en-Bresse</text>
  <text x="88" y="1116" font-size="13" fill="#243b53">Ultima ciudad antes del cierre: Annecy</text>
  <text x="926.0" y="1088" text-anchor="end" font-size="12.5" fill="#52606d">Capitales mostradas: 96</text>
  <text x="926.0" y="1116" text-anchor="end" font-size="12.5" fill="#52606d">Saltos del recorrido trazado: 100</text>
</svg>